<?xml version="1.0" encoding="UTF-8" standalone="no"?>
<svg
   xmlns:dc="http://purl.org/dc/elements/1.1/"
   xmlns:cc="http://creativecommons.org/ns#"
   xmlns:rdf="http://www.w3.org/1999/02/22-rdf-syntax-ns#"
   xmlns:svg="http://www.w3.org/2000/svg"
   xmlns="http://www.w3.org/2000/svg"
   xmlns:sodipodi="http://sodipodi.sourceforge.net/DTD/sodipodi-0.dtd"
   xmlns:inkscape="http://www.inkscape.org/namespaces/inkscape"
   viewBox="0 0 1612 542"
   height="542"
   width="1612"
   xml:space="preserve"
   id="svg2"
   version="1.1"
   sodipodi:docname="Adjusted_Logos(2.7.17).svg"
   inkscape:version="0.92.0 r15299"><sodipodi:namedview
     pagecolor="#ffffff"
     bordercolor="#666666"
     borderopacity="1"
     objecttolerance="10"
     gridtolerance="10"
     guidetolerance="10"
     inkscape:pageopacity="0"
     inkscape:pageshadow="2"
     inkscape:window-width="1069"
     inkscape:window-height="546"
     id="namedview3727"
     showgrid="false"
     showguides="false"
     inkscape:zoom="0.375"
     inkscape:cx="228.98866"
     inkscape:cy="223.09835"
     inkscape:window-x="141"
     inkscape:window-y="30"
     inkscape:window-maximized="0"
     inkscape:current-layer="svg2" /><metadata
     id="metadata8"><rdf:RDF><cc:Work
         rdf:about=""><dc:format>image/svg+xml</dc:format><dc:type
           rdf:resource="http://purl.org/dc/dcmitype/StillImage" /><dc:title></dc:title></cc:Work></rdf:RDF></metadata><defs
     id="defs6"><clipPath
       id="clipPath18"
       clipPathUnits="userSpaceOnUse"><path
         id="path16"
         d="M 0,400 H 1200 V 0 H 0 Z"
         inkscape:connector-curvature="0" /></clipPath><clipPath
       id="clipPath76"
       clipPathUnits="userSpaceOnUse"><path
         id="path74"
         d="M 1091.502,400 890.501,198.998 1089.501,0 h 99.805 L 1200,10.694 V 387.303 L 1187.303,400 Z"
         inkscape:connector-curvature="0" /></clipPath></defs><g
     inkscape:groupmode="layer"
     id="layer2"
     inkscape:label="background"
     style="display:inline"
     transform="translate(0,8.666672)" /><g
     transform="matrix(1.3333333,0,0,-1.3333333,6,540.00001)"
     id="g10"><g
       id="g3820"
       transform="translate(-790.3603,5e-4)"><g
         transform="translate(1188.5566,200.0005)"
         id="g28"
         style="display:inline"><path
           id="path30"
           style="fill:#173550;fill-opacity:1;fill-rule:nonzero;stroke:none"
           d="m -3,0 c 0,-106.614 -86.428,-193.042 -193.041,-193.042 -106.613,0 -193.041,86.428 -193.041,193.042 0,106.613 86.428,193.041 193.041,193.041 C -89.428,193.041 -3,106.613 -3,0"
           inkscape:connector-curvature="0" /></g><g
         transform="translate(896.5,199.0005)"
         id="g66"
         style="display:inline"><path
           id="path68"
           style="fill:none;stroke:#ffffff;stroke-width:1;stroke-linecap:butt;stroke-linejoin:miter;stroke-miterlimit:10;stroke-dasharray:none;stroke-opacity:1"
           d="m 0,0 c 0,-3.315 -2.687,-6 -6,-6 -3.313,0 -6,2.685 -6,6 0,3.313 2.687,6 6,6 3.313,0 6,-2.687 6,-6 z"
           inkscape:connector-curvature="0" /></g><g
         style="display:inline"
         id="g70"><g
           style="display:inline"
           id="g72"
           clip-path="url(#clipPath76)"><g
             id="g78"
             transform="translate(1046.5,199)"><path
               inkscape:connector-curvature="0"
               d="m -3,0 c 0,-86.156 -69.844,-156 -156,-156 -86.156,0 -156,69.844 -156,156 0,86.156 69.844,156 156,156 C -72.844,156 -3,86.156 -3,0 Z"
               style="fill:none;stroke:#ffffff;stroke-width:12;stroke-linecap:butt;stroke-linejoin:miter;stroke-miterlimit:10;stroke-dasharray:none;stroke-opacity:1"
               id="path80" /></g><g
             id="g82"
             transform="translate(1005.9902,198.998)"><path
               inkscape:connector-curvature="0"
               d="m -3,0 c 0,-63.781 -51.707,-115.488 -115.49,-115.488 -63.783,0 -115.49,51.707 -115.49,115.488 0,63.784 51.707,115.491 115.49,115.491 C -54.707,115.491 -3,63.784 -3,0 Z"
               style="fill:none;stroke:#ffffff;stroke-width:12;stroke-linecap:butt;stroke-linejoin:miter;stroke-miterlimit:10;stroke-dasharray:none;stroke-opacity:1"
               id="path84" /></g><g
             id="g86"
             transform="translate(962.79,199)"><path
               inkscape:connector-curvature="0"
               d="m -3,0 c 0,-39.924 -32.365,-72.289 -72.29,-72.289 -39.924,0 -72.289,32.365 -72.289,72.289 0,39.925 32.365,72.29 72.289,72.29 C -35.365,72.29 -3,39.925 -3,0 Z"
               style="fill:none;stroke:#ffffff;stroke-width:12;stroke-linecap:butt;stroke-linejoin:miter;stroke-miterlimit:10;stroke-dasharray:none;stroke-opacity:1"
               id="path88" /></g><g
             id="g90"
             transform="translate(925,198.998)"><path
               inkscape:connector-curvature="0"
               d="m -3,0 c 0,-19.053 -15.446,-34.498 -34.5,-34.498 -19.053,0 -34.499,15.445 -34.499,34.498 0,19.054 15.446,34.5 34.499,34.5 C -18.446,34.5 -3,19.054 -3,0 Z"
               style="fill:none;stroke:#ffffff;stroke-width:12;stroke-linecap:butt;stroke-linejoin:miter;stroke-miterlimit:10;stroke-dasharray:none;stroke-opacity:1"
               id="path92" /></g><g
             id="g94"
             transform="translate(1083.8721,199.0005)"><path
               inkscape:connector-curvature="0"
               d="m -3,0 c 0,-106.795 -86.575,-193.372 -193.371,-193.372 -106.796,0 -193.372,86.577 -193.372,193.372 0,106.795 86.576,193.37 193.372,193.37 C -89.575,193.37 -3,106.795 -3,0 Z"
               style="fill:none;stroke:#ffffff;stroke-width:12;stroke-linecap:butt;stroke-linejoin:miter;stroke-miterlimit:10;stroke-dasharray:none;stroke-opacity:1"
               id="path96" /></g></g></g></g><g
       id="g12"
       style="display:inline"><g
         id="g20"
         transform="translate(398.1963,200.001)" /><g
         id="g24"
         transform="translate(793.041,200)"><path
           inkscape:connector-curvature="0"
           d="m 0,0 c 0,-106.614 -86.428,-193.042 -193.042,-193.042 -106.613,0 -193.041,86.428 -193.041,193.042 0,106.613 86.428,193.041 193.041,193.041 C -86.428,193.041 0,106.613 0,0"
           style="fill:#4f433f;fill-opacity:1;fill-rule:nonzero;stroke:none"
           id="path26" /></g><path
         inkscape:connector-curvature="0"
         d="m 567.311,224.062 h -43.048 v -39.749 h 43.048 z m -54.598,0 h -42.898 v -39.749 h 42.898 z m 65.997,10.949 v -70.197 h -11.399 v 8.549 h -43.048 v -48.597 h -11.55 v 48.597 h -42.899 v -9.299 h -10.949 v 70.947 h 53.848 v 26.699 h 11.55 v -26.699 z"
         style="fill:#ffffff;fill-opacity:1;fill-rule:nonzero;stroke:none"
         id="path32" /><g
         id="g34"
         transform="translate(689.8613,188.2129)"><path
           inkscape:connector-curvature="0"
           d="M 0,0 C 5.551,-4.8 12.15,-11.699 15.15,-16.35 L 7.5,-20.85 C 4.65,-16.199 -1.799,-9 -7.049,-3.9 Z m 20.25,-22.499 v -9.45 h -81.747 v 9.45 h 34.499 V 2.699 h -28.199 v 9.6 h 28.199 v 21.3 H -59.396 V 43.648 H 17.25 V 33.599 h -33.749 v -21.3 H 13.5 v -9.6 h -29.999 v -25.198 z m 8.699,78.747 H -71.397 V -45.748 H 28.949 Z m 11.55,10.349 V -63.598 h -11.55 v 7.5 H -71.396 v -7.5 h -11.1 V 66.597 Z"
           style="fill:#ffffff;fill-opacity:1;fill-rule:nonzero;stroke:none"
           id="path36" /></g><g
         id="g38"
         transform="translate(205.1553,200.0005)"><path
           inkscape:connector-curvature="0"
           d="m 792.87337,1.5045 c 0,-0.552 -0.448,-1 -1,-1 -0.552,0 -1,0.448 -1,1 0,0.552 0.448,1 1,1 0.552,0 1,-0.448 1,-1 z"
           style="fill:none;stroke:#ffffff;stroke-width:12;stroke-linecap:butt;stroke-linejoin:miter;stroke-miterlimit:10;stroke-dasharray:none;stroke-opacity:1"
           id="path40" /></g><g
         id="g42"
         transform="translate(204.1553,6.959)"><path
           inkscape:connector-curvature="0"
           d="M 794.24087,-0.10370246 V 194.4433"
           style="fill:none;stroke:#ffffff;stroke-width:12;stroke-linecap:butt;stroke-linejoin:miter;stroke-miterlimit:10;stroke-dasharray:none;stroke-opacity:1"
           id="path44" /></g><g
         id="g46"
         transform="translate(204.6792,201.4023)" /><g
         id="g50"
         transform="translate(203.9937,3.668)" /><g
         id="g54"
         transform="translate(204.6792,201.4023)" /><g
         id="g58"
         transform="translate(204.6792,201.4023)"><g
           id="g3853"><path
             id="path22"
             style="display:inline;fill:#1e534c;fill-opacity:1;fill-rule:nonzero;stroke:none"
             d="m 987.23407,-1.4013025 c 0,-106.6139975 -86.428,-193.0419975 -193.042,-193.0419975 -106.613,0 -193.041,86.428 -193.041,193.0419975 0,106.6130025 86.428,193.0410025 193.041,193.0410025 106.614,0 193.042,-86.428 193.042,-193.0410025"
             inkscape:connector-curvature="0" /><path
             id="path48"
             style="display:inline;fill:none;stroke:#ffffff;stroke-width:12;stroke-linecap:butt;stroke-linejoin:miter;stroke-miterlimit:10;stroke-dasharray:none;stroke-opacity:1"
             d="M 793.71697,-2.4649425e-6 740.97497,144.907"
             inkscape:connector-curvature="0" /><path
             id="path52"
             style="display:inline;fill:none;stroke:#ffffff;stroke-width:12;stroke-linecap:butt;stroke-linejoin:miter;stroke-miterlimit:10;stroke-dasharray:none;stroke-opacity:1"
             d="m 793.03147,-197.7343 0.318,197.837"
             inkscape:connector-curvature="0" /><path
             id="path56"
             style="display:inline;fill:none;stroke:#ffffff;stroke-width:12;stroke-linecap:butt;stroke-linejoin:miter;stroke-miterlimit:10;stroke-dasharray:none;stroke-opacity:1"
             d="M 793.71697,-2.4649425e-6 694.59297,-118.129"
             inkscape:connector-curvature="0" /><path
             id="path60"
             style="fill:none;stroke:#ffffff;stroke-width:12;stroke-linecap:butt;stroke-linejoin:miter;stroke-miterlimit:10;stroke-dasharray:none;stroke-opacity:1"
             d="m 793.71697,0 151.863,-26.775"
             inkscape:connector-curvature="0" /></g></g><g
         id="g62"
         transform="translate(896.5,199.0005)"><path
           inkscape:connector-curvature="0"
           d="m -790.3603,5e-4 c 0,-3.315 -2.687,-6 -6,-6 -3.313,0 -6,2.685 -6,6 0,3.313 2.687,6 6,6 3.313,0 6,-2.687 6,-6"
           style="fill:#ffffff;fill-opacity:1;fill-rule:nonzero;stroke:none"
           id="path64" /></g></g></g><g
     inkscape:groupmode="layer"
     id="layer1"
     inkscape:label="Layer 1"
     style="display:inline"
     transform="translate(0,8.666672)" /></svg>